<?xml version="1.0" encoding="UTF-8"?>
<svg baseProfile="tiny" version="1.2" xmlns="http://www.w3.org/2000/svg" width="284" height="114" fill="none"><title>bimi_legendairy</title><path fill="#000" d="M58.232 102.429a8.64 8.64 0 0 1-.54 3.11 6.997 6.997 0 0 1-1.51 2.43 6.757 6.757 0 0 1-2.35 1.58 8.447 8.447 0 0 1-6.05 0 6.828 6.828 0 0 1-2.34-1.58 7 7 0 0 1-1.51-2.43 8.642 8.642 0 0 1-.54-3.11 8.535 8.535 0 0 1 .54-3.09 7 7 0 0 1 1.51-2.44 6.729 6.729 0 0 1 2.34-1.6 8.45 8.45 0 0 1 6.05 0c.89.359 1.69.904 2.35 1.6a6.997 6.997 0 0 1 1.47 2.44c.383.985.58 2.033.58 3.09Zm-2.09 0a7.75 7.75 0 0 0-.38-2.49 5.178 5.178 0 0 0-1.11-1.85 4.568 4.568 0 0 0-1.68-1.18 6.11 6.11 0 0 0-4.4 0 4.689 4.689 0 0 0-1.69 1.18 5.177 5.177 0 0 0-1.07 1.85 7.753 7.753 0 0 0-.38 2.49 7.66 7.66 0 0 0 .38 2.49 5.309 5.309 0 0 0 1.11 1.9c.49.495 1.08.88 1.73 1.13a6.4 6.4 0 0 0 4.4 0 4.782 4.782 0 0 0 1.6-1.13 5.313 5.313 0 0 0 1.07-1.86 7.66 7.66 0 0 0 .42-2.53Zm6.13-1a4.716 4.716 0 0 1 1.24-1.7 2.65 2.65 0 0 1 1.79-.62c.219-.002.437.021.65.07.195.046.38.124.55.23l-.13 1.4a.31.31 0 0 1-.32.26 2.229 2.229 0 0 1-.43-.06 2.85 2.85 0 0 0-1.54.08 2.29 2.29 0 0 0-.71.44 3.016 3.016 0 0 0-.55.72 6.14 6.14 0 0 0-.44 1v6.72h-1.88v-10.66h1.07a.59.59 0 0 1 .42.12.71.71 0 0 1 .15.4l.13 1.6Zm9.14 8.67a2.603 2.603 0 0 1-1.94-.7 2.83 2.83 0 0 1-.67-2v-6.51h-1.28a.406.406 0 0 1-.29-.1.383.383 0 0 1-.11-.31v-.75l1.74-.22.43-3.28a.41.41 0 0 1 .14-.25.4.4 0 0 1 .29-.11h1v3.66h3.07v1.36h-3.14v6.38a1.348 1.348 0 0 0 .32 1 1.15 1.15 0 0 0 .84.33c.17.003.34-.024.5-.08.135-.042.263-.102.38-.18l.26-.16a.373.373 0 0 1 .2-.09.324.324 0 0 1 .159.055.322.322 0 0 1 .111.125l.54.89a3.654 3.654 0 0 1-1.16.72 4.246 4.246 0 0 1-1.39.24v-.02Zm6.14-9.39a5.65 5.65 0 0 1 1.51-1.15 4.069 4.069 0 0 1 1.91-.43 3.708 3.708 0 0 1 1.54.29c.432.178.813.46 1.11.82.314.371.546.803.68 1.27a5.4 5.4 0 0 1 .23 1.65v6.77h-1.88v-6.77a2.82 2.82 0 0 0-.55-1.87 1.998 1.998 0 0 0-1.67-.67 3.153 3.153 0 0 0-1.56.4 5.066 5.066 0 0 0-1.32 1.08v7.83h-1.9v-15.44h1.88l.02 6.22Zm14.31-1.58c.72-.012 1.433.121 2.1.39.61.24 1.158.616 1.6 1.1a4.72 4.72 0 0 1 1 1.73c.246.728.365 1.492.35 2.26a6.762 6.762 0 0 1-.35 2.27 4.83 4.83 0 0 1-1 1.72 4.534 4.534 0 0 1-1.6 1.1 5.564 5.564 0 0 1-2.1.38 5.71 5.71 0 0 1-2.12-.38 4.57 4.57 0 0 1-1.59-1.1 4.993 4.993 0 0 1-1-1.72 6.997 6.997 0 0 1-.35-2.27 6.923 6.923 0 0 1 .35-2.26c.21-.64.55-1.229 1-1.73.44-.482.984-.858 1.59-1.1a5.518 5.518 0 0 1 2.12-.37v-.02Zm0 9.49a2.746 2.746 0 0 0 2.36-1 6.058 6.058 0 0 0 0-5.91 2.73 2.73 0 0 0-2.36-1.06 3.352 3.352 0 0 0-1.39.27 2.614 2.614 0 0 0-1 .79 3.652 3.652 0 0 0-.59 1.27 7.144 7.144 0 0 0-.19 1.69 4.9 4.9 0 0 0 .78 3 2.793 2.793 0 0 0 2.39.97v-.02Zm9.31-1.25c.289.421.677.765 1.13 1 .428.189.892.284 1.36.28a2.68 2.68 0 0 0 2.29-1.06c.578-.89.859-1.94.8-3a7.11 7.11 0 0 0-.19-1.78 3.423 3.423 0 0 0-.52-1.22 2.183 2.183 0 0 0-.85-.7 2.815 2.815 0 0 0-1.15-.22 3.075 3.075 0 0 0-1.61.42 4.799 4.799 0 0 0-1.26 1.18v5.1Zm-.09-6.43a5.747 5.747 0 0 1 1.55-1.33 4 4 0 0 1 2-.5 3.78 3.78 0 0 1 1.67.35 3.34 3.34 0 0 1 1.27 1c.375.51.65 1.087.81 1.7.199.764.293 1.551.28 2.34a7.415 7.415 0 0 1-.31 2.2 5.212 5.212 0 0 1-.92 1.75 4.17 4.17 0 0 1-3.37 1.59 3.93 3.93 0 0 1-1.68-.33 4.009 4.009 0 0 1-1.23-.92v4.7h-1.87v-14.18h1.12a.46.46 0 0 1 .49.39l.19 1.24Zm17.1 2.51c.005-.4-.056-.799-.18-1.18a2.493 2.493 0 0 0-.54-.94 2.285 2.285 0 0 0-.85-.61 2.989 2.989 0 0 0-1.14-.22 2.874 2.874 0 0 0-2.14.79 3.67 3.67 0 0 0-1 2.16h5.85Zm1.52 5c-.238.284-.518.53-.83.73a4.76 4.76 0 0 1-1 .51c-.37.133-.751.23-1.14.29a6.547 6.547 0 0 1-1.16.11 5.387 5.387 0 0 1-2-.37 4.768 4.768 0 0 1-1.61-1.09 5.32 5.32 0 0 1-1-1.79 7.266 7.266 0 0 1-.37-2.43 6.39 6.39 0 0 1 .33-2.08 4.807 4.807 0 0 1 1-1.67c.431-.481.964-.86 1.56-1.11a4.998 4.998 0 0 1 2.08-.41 4.838 4.838 0 0 1 1.77.32c.53.202 1.008.52 1.4.93.416.424.737.932.94 1.49.228.642.34 1.319.33 2 .017.201-.013.403-.09.59a.388.388 0 0 1-.16.123c-.063.027-.132.036-.2.027h-7.11a6.74 6.74 0 0 0 .28 1.75c.146.458.38.883.69 1.25.273.322.615.578 1 .75.438.165.902.247 1.37.24.406.01.811-.044 1.2-.16.307-.094.605-.214.89-.36.24-.12.44-.24.6-.34a.878.878 0 0 1 .43-.17.402.402 0 0 1 .36.18l.44.69Zm9.39-6.61a3 3 0 0 0-1.13-1 3.198 3.198 0 0 0-1.37-.28 2.666 2.666 0 0 0-2.28 1.06 4.939 4.939 0 0 0-.8 3c-.01.598.051 1.196.18 1.78.098.437.278.851.53 1.22a2 2 0 0 0 .85.7c.362.149.749.224 1.14.22a2.995 2.995 0 0 0 1.61-.42 4.573 4.573 0 0 0 1.27-1.19v-5.09Zm1.87-7.36v15.46h-1.11a.48.48 0 0 1-.51-.39l-.17-1.29c-.43.532-.956.98-1.55 1.32-.609.346-1.3.522-2 .51a3.866 3.866 0 0 1-1.65-.35c-.5-.227-.938-.57-1.28-1a5.064 5.064 0 0 1-.8-1.7 8.712 8.712 0 0 1-.29-2.34 7.252 7.252 0 0 1 .32-2.18c.19-.64.495-1.24.9-1.77.385-.492.877-.89 1.44-1.16a4.209 4.209 0 0 1 1.93-.43 3.73 3.73 0 0 1 2.92 1.25v-5.89l1.85-.04Zm4.92 4.82v10.64h-1.86v-10.63l1.86-.01Zm.4-3.33c.004.176-.034.351-.11.51a1.465 1.465 0 0 1-.3.42 1.188 1.188 0 0 1-.43.28 1.259 1.259 0 0 1-1.03 0 1.267 1.267 0 0 1-.4-.28 1.67 1.67 0 0 1-.29-.42 1.242 1.242 0 0 1-.1-.51 1.311 1.311 0 0 1 .39-.95c.113-.122.249-.22.4-.29a1.255 1.255 0 0 1 1.03 0c.163.064.309.163.43.29.131.12.233.266.3.43.079.165.117.347.11.53v-.01Zm10.08 5.22a.727.727 0 0 1-.17.18.334.334 0 0 1-.23.07.687.687 0 0 1-.35-.13 3.493 3.493 0 0 0-.47-.29 3.19 3.19 0 0 0-1.68-.42 3.23 3.23 0 0 0-1.39.28 2.679 2.679 0 0 0-1 .8c-.284.38-.491.811-.61 1.27a6.19 6.19 0 0 0-.2 1.67c-.01.581.064 1.16.22 1.72.125.456.335.883.62 1.26.272.33.614.597 1 .78a3.637 3.637 0 0 0 2.42.1c.256-.09.498-.215.72-.37.2-.13.36-.25.49-.35a.61.61 0 0 1 .39-.17.405.405 0 0 1 .35.18l.53.68a3.63 3.63 0 0 1-.79.73c-.31.215-.646.39-1 .52a5.183 5.183 0 0 1-1.06.29 6.119 6.119 0 0 1-1.13.1 4.608 4.608 0 0 1-1.86-.37 4.205 4.205 0 0 1-1.48-1.06 5.09 5.09 0 0 1-1-1.72 7.22 7.22 0 0 1-.35-2.32 7.387 7.387 0 0 1 .32-2.2 5.101 5.101 0 0 1 1-1.73c.43-.49.963-.88 1.56-1.14a5.202 5.202 0 0 1 2.14-.41 5.068 5.068 0 0 1 2 .36c.567.232 1.083.571 1.52 1l-.51.69Zm27.65-6.29-4.7 15h-1.82l-3.84-11.43c0-.11-.07-.23-.11-.35l-.09-.4c0 .14-.07.27-.11.4-.04.13-.07.24-.1.35l-3.84 11.48h-1.75l-4.7-15h1.7a.739.739 0 0 1 .46.13c.117.087.202.21.24.35l3.06 10.39c0 .18.09.39.13.6.04.21.1.45.14.7.05-.25.1-.48.15-.7.05-.22.11-.42.17-.6l3.54-10.46a.825.825 0 0 1 .24-.33.73.73 0 0 1 .46-.15h.58a.658.658 0 0 1 .44.13.833.833 0 0 1 .26.35l3.52 10.46c.07.189.127.383.17.58.06.21.11.43.16.67.028-.225.068-.449.12-.67 0-.21.08-.4.13-.58l3.12-10.46a.696.696 0 0 1 .23-.34.71.71 0 0 1 .45-.14l1.59.02Zm5.09 4.24a5.379 5.379 0 0 1 2.1.39 4.37 4.37 0 0 1 1.6 1.1 4.681 4.681 0 0 1 1 1.73c.25.727.371 1.492.36 2.26a6.74 6.74 0 0 1-.36 2.27 4.801 4.801 0 0 1-1 1.72 4.614 4.614 0 0 1-1.6 1.1 5.564 5.564 0 0 1-2.1.38 5.71 5.71 0 0 1-2.12-.38 4.623 4.623 0 0 1-1.6-1.1 4.824 4.824 0 0 1-1-1.72 6.759 6.759 0 0 1-.35-2.27 6.677 6.677 0 0 1 .35-2.26 4.725 4.725 0 0 1 1-1.73 4.37 4.37 0 0 1 1.6-1.1 5.518 5.518 0 0 1 2.12-.38v-.01Zm0 9.49a2.725 2.725 0 0 0 2.35-1 5.999 5.999 0 0 0 0-5.91 2.718 2.718 0 0 0-2.35-1.06c-.48-.01-.958.082-1.4.27a2.51 2.51 0 0 0-1 .79 3.465 3.465 0 0 0-.59 1.27 6.681 6.681 0 0 0-.19 1.69 4.901 4.901 0 0 0 .78 3 2.788 2.788 0 0 0 2.4.96v-.01Zm9.2-7.78c.223-.257.467-.494.73-.71.255-.204.529-.382.82-.53.292-.152.601-.27.92-.35a4.533 4.533 0 0 1 1.06-.12 3.678 3.678 0 0 1 1.54.29 2.78 2.78 0 0 1 1.11.82c.314.371.546.803.68 1.27a5.39 5.39 0 0 1 .23 1.65v6.77h-1.88v-6.77a2.817 2.817 0 0 0-.55-1.87 2 2 0 0 0-1.67-.67 3.176 3.176 0 0 0-1.56.4 5.071 5.071 0 0 0-1.32 1.08v7.83h-1.88v-10.63h1.12a.46.46 0 0 1 .49.39l.16 1.15Zm16.87 1a3 3 0 0 0-1.13-1 3.198 3.198 0 0 0-1.37-.28 2.681 2.681 0 0 0-2.28 1.06 4.948 4.948 0 0 0-.79 3 7.66 7.66 0 0 0 .17 1.78c.098.437.278.851.53 1.22a2 2 0 0 0 .85.7 3.191 3.191 0 0 0 2.75-.2 4.573 4.573 0 0 0 1.27-1.19v-5.09Zm1.87-7.36v15.46h-1.11a.48.48 0 0 1-.51-.39l-.17-1.29c-.43.532-.956.98-1.55 1.32-.609.346-1.3.522-2 .51a3.866 3.866 0 0 1-1.65-.35 3.436 3.436 0 0 1-1.27-1 4.895 4.895 0 0 1-.81-1.7 8.712 8.712 0 0 1-.29-2.34 7.252 7.252 0 0 1 .32-2.18c.19-.64.495-1.24.9-1.77.385-.492.877-.89 1.44-1.16a4.209 4.209 0 0 1 1.93-.43 3.73 3.73 0 0 1 2.92 1.25v-5.89l1.85-.04Zm10.07 9a3.387 3.387 0 0 0-.19-1.18 2.608 2.608 0 0 0-.53-.94 2.454 2.454 0 0 0-.85-.61 3 3 0 0 0-1.15-.22 2.836 2.836 0 0 0-2.13.79 3.682 3.682 0 0 0-1 2.16h5.85Zm1.51 5c-.238.284-.518.53-.83.73a4.76 4.76 0 0 1-1 .51c-.366.133-.745.23-1.13.29a6.65 6.65 0 0 1-1.17.11 5.387 5.387 0 0 1-2-.37 4.692 4.692 0 0 1-1.61-1.09 5.006 5.006 0 0 1-1-1.79 7.242 7.242 0 0 1-.38-2.43 6.16 6.16 0 0 1 .34-2.08 4.807 4.807 0 0 1 1-1.67 4.197 4.197 0 0 1 1.56-1.11 4.998 4.998 0 0 1 2.08-.41 4.786 4.786 0 0 1 1.76.32c.534.2 1.016.518 1.41.93.417.422.734.931.93 1.49a5.48 5.48 0 0 1 .34 2c.017.201-.013.403-.09.59a.41.41 0 0 1-.36.15h-7.11c.008.593.099 1.182.27 1.75.145.46.383.886.7 1.25.273.322.615.578 1 .75.434.166.896.247 1.36.24a3.93 3.93 0 0 0 1.21-.16c.304-.093.598-.214.88-.36.21-.102.413-.215.61-.34a.856.856 0 0 1 .43-.17.434.434 0 0 1 .36.18l.44.69Zm4.24-7a4.714 4.714 0 0 1 1.24-1.7 2.65 2.65 0 0 1 1.79-.62c.219-.002.437.021.65.07.195.046.381.124.55.23l-.13 1.4a.309.309 0 0 1-.32.26 2.227 2.227 0 0 1-.43-.06 2.85 2.85 0 0 0-1.54.08 2.29 2.29 0 0 0-.71.44 3.011 3.011 0 0 0-.55.72c-.176.32-.323.654-.44 1v6.72h-1.88v-10.72h1.07a.59.59 0 0 1 .42.12.71.71 0 0 1 .15.4l.13 1.66Zm12-.38a.43.43 0 0 1-.39.23.735.735 0 0 1-.36-.12c-.13-.07-.29-.16-.49-.25a4.022 4.022 0 0 0-.68-.26 3.316 3.316 0 0 0-.95-.13c-.288 0-.575.043-.85.13a2.075 2.075 0 0 0-.65.32 1.65 1.65 0 0 0-.41.5 1.329 1.329 0 0 0-.14.6 1 1 0 0 0 .24.68c.178.195.392.355.63.47.284.143.578.263.88.36l1 .32c.35.12.68.24 1 .38.32.135.619.313.89.53.254.215.465.476.62.77.168.342.25.719.24 1.1a3.38 3.38 0 0 1-.27 1.36 3.001 3.001 0 0 1-.77 1.08 4.06 4.06 0 0 1-1.26.72 5.311 5.311 0 0 1-1.72.26 5.385 5.385 0 0 1-2-.36 4.982 4.982 0 0 1-1.53-.93l.44-.72a.584.584 0 0 1 .2-.21.5.5 0 0 1 .29-.07.687.687 0 0 1 .4.15c.14.1.31.2.5.32.236.133.484.244.74.33.347.105.708.152 1.07.14.338.011.676-.033 1-.13.249-.087.48-.219.68-.39.174-.155.31-.346.4-.56.089-.212.133-.44.13-.67a1.076 1.076 0 0 0-.24-.72 1.835 1.835 0 0 0-.62-.5 3.99 3.99 0 0 0-.89-.35l-1-.33c-.34-.11-.68-.24-1-.38a3.718 3.718 0 0 1-.88-.54 2.58 2.58 0 0 1-.63-.8 2.952 2.952 0 0 1 0-2.33c.17-.384.423-.725.74-1a3.492 3.492 0 0 1 1.18-.68 4.726 4.726 0 0 1 1.61-.25 5 5 0 0 1 1.88.33 4.41 4.41 0 0 1 1.45.91l-.48.69Zm2.57 7.73a1.288 1.288 0 0 1 .1-.52 1.5 1.5 0 0 1 .27-.42 1.35 1.35 0 0 1 .42-.28 1.264 1.264 0 0 1 1 0 1.294 1.294 0 0 1 .7.7c.073.164.111.341.11.52a1.311 1.311 0 0 1-.39.93 1.175 1.175 0 0 1-.42.27 1.265 1.265 0 0 1-1 0 1.175 1.175 0 0 1-.42-.27 1.628 1.628 0 0 1-.27-.41 1.297 1.297 0 0 1-.09-.54l-.01.02ZM196.102 21.65a4.37 4.37 0 1 0-4.35-4.37 4.364 4.364 0 0 0 2.682 4.033c.529.22 1.096.335 1.668.336Z"/><path fill="#000" d="M283.442 25.82s-12.07-6.06-21.86 15.77a35.7 35.7 0 0 1-6.81 9.29c-4.2 5-13.64 9.54-12.17 2.6a70.367 70.367 0 0 1 2.23-7.24l7.82-18.1-8.16.21s-6.59 15.49-8.34 19.1c-1.75 3.61-6.55 7.15-9.51 8.69-2.96 1.54-9 3-4.62-6.48 1.18-2.75 6.36-13.64 6.41-16.11.5-2.61.72-7.74-11.58-7.56 1.26-3.29.31-4.9-.85-5.83a7.34 7.34 0 0 0-5.07-1.07 5.545 5.545 0 0 0-4.147 2.36 5.537 5.537 0 0 0-.773 4.71c.2.62.81 2 2 2.19.88.34 2.84-.77 2.64.29-.16.9-.2 1.89-3.12 8.05-2.92 6.16-6.42 11.73-9.88 15.42-3.46 3.69-7.32 5.13-9.34 4.75-2.02-.38-1.49-3-1.24-4.63s10.28-24.41 10.28-24.41h-7.45s-5.25 12.2-8.25 17.59c-3 5.39-4.74 8-8.54 10.58a8.16 8.16 0 0 1-5.39.93c-1.94-.54-2.15-2-1.61-3.8a44.196 44.196 0 0 1 2.72-6.76c1.45-3.31 8.16-18.42 8.16-18.42l-7.21-.07-1.5 3.48a7.184 7.184 0 0 0-6.2-4.23 17.05 17.05 0 0 0-10.43 2.19 37.707 37.707 0 0 0-15 15.69c-7.3 15.2 3.23 16.77 6 16.78a17.838 17.838 0 0 0 7.34-1.78 28.703 28.703 0 0 0 7.88-6.13 12.244 12.244 0 0 0 1.78-2.37c-.341.839-.57 1.72-.68 2.62-.11 1.23-.46 3.17.4 4.72.86 1.55 2.16 2.38 4.71 2.68a14.18 14.18 0 0 0 9.17-2 20.662 20.662 0 0 0 4.63-3.7c.656-.634 1.277-1.301 1.86-2l.62-1c-3.08 14.6 12.49 7.92 15.14 5.73 3.41-2.46 5.55-4.3 10.79-12.22 3.49-5.28 6.72-13 8.9-18 8.37.07 6.41 4.43 5.33 7a105.398 105.398 0 0 1-4.87 11.49c-9 17.6 3.95 16.3 9.11 14.19 4.24-1.4 7.85-4.74 9.38-6.28 1.53-1.54 1.42-1.53 1.32-.83-.93 6.77 2.81 7.47 4.67 7.93 11.15 1 20.12-12.83 20.12-12.83s-4.78 17.75-18.49 26.18a39 39 0 0 1-15.72 4.55l-.46.65c-.25.55-1.3 1.53 0 1.92.46.13 24.88 1.22 37.21-23.36 1.11-2 7.05-16.92 8.2-19.76 4.76-12.42 8.91-9 8.91-9l1.15.55c.52.43 1.74-3 2.1-3.88.43-1.18.29-1.03.29-1.03Zm-123.79 22.15c-3 4.54-8.4 7.46-11.08 8.45-2.52.92-5.89.37-5.88-3.1.01-3.47 2.75-10.32 5.76-14a26.206 26.206 0 0 1 8.62-7.23 8.59 8.59 0 0 1 5-.9 4.944 4.944 0 0 1 4.51 3.84 56.525 56.525 0 0 1-6.93 12.94Z"/><path fill="#000" d="M204.882 73.82c-1-.3-2.53.32-4.59 1-19.07 6.07-50.73-2-60.17-4.37-15.27-3.44-21.47-3.24-21.47-3.24s1.73-3.63 3.17-7.21 4.08-9.55 4.08-9.55l-7.34.28s-.95 2.27-2 5a18.84 18.84 0 0 1-7.4 2.47c-4.69.46-8.49-1.91-9.52-6.07-.57-2-.8-4 .65-8.13a25.472 25.472 0 0 1 4-6.67 22.91 22.91 0 0 1 8.5-6.38c4.08-1.61 6.5.19 6.86 1.78a7.203 7.203 0 0 1-1 6.29 9.476 9.476 0 0 1-4.7 3.76l-.4.11-1.9 4.56a70.202 70.202 0 0 1 9.91-4.63c3.93-1.38 8-2.51 10.58-4.22 14.65-8.51 8.95-19.64 8.95-19.64a7.076 7.076 0 0 0 2-1c2.29-1.54 4.08-3.08 4.88-5.07a9.223 9.223 0 0 0-.55-8.611c-2.24-3.35-7.31-4.75-11-4.14-3.69.61-7.51 2.83-8.83 7.33-1.73 5.61 3.62 9.79 3.62 9.79a21.393 21.393 0 0 1-4.49 0 47.415 47.415 0 0 1-9.38-2.18s-9-4-16.87-4.23c-4.28 0-7.71 1.4-9.57 3.16-2.78 2.46-3.22 3.42-3.22 3.42s-.72.82.22 1.26l5.56 2.69c1.22.43 1.38-.62 1.38-.62s1.08-5.87 8-6.28c5.63-.92 15.18 4.64 17.66 5.45a33.765 33.765 0 0 0 10.87 1.71c1.93-.18 2.67-.28 2.67-.28a4.618 4.618 0 0 1 2.11 4.17c-.04 6.16-6.5 11.42-11.5 13.29a8.604 8.604 0 0 0 1.08-6.78c-.67-3.76-13.07-10.47-27.25 2.66a27.4 27.4 0 0 0-6.68 11.24 26.094 26.094 0 0 0-.46 2.75 24.4 24.4 0 0 1-9.39 7c-1.35.84-13.73 6-17.54-2.45a9.68 9.68 0 0 1 .38-6.84s7.37.7 12.43-.45 9.61-3.86 11.16-5.6a8.85 8.85 0 0 0 2.27-8.78c-.64-4.45-13.29-10.18-27.25 2.66a27.4 27.4 0 0 0-6.68 11.24c-1.79 8.94 3 12.43 4.9 13.4.51.27 1 .54 1.63.8a63.751 63.751 0 0 1-33.46-6.2s.7-.86 1.41-1.58a27.806 27.806 0 0 0 2.6-3.61c2.32-3.16 3.85-7.46 4.66-7.63.81-.17 6.41-2.38 14.19-8 7.78-5.62 10.7-12.4 11-15.27.49-2.59-.31-7-3.39-8.36-3.88-1.74-7.78-1-11.76.41-2.8 1-9 5.19-12.77 12-2.5 4.47-6 16.91-6 16.91a36.81 36.81 0 0 1-3 8.15 20.443 20.443 0 0 1-2.24 4s-1.67-.74-3.51-1.46a26.416 26.416 0 0 0-8.93-2.08c-13.99-.13-13.71 10.7-9.56 13.53 1.4 1 3.74 2.46 10.06 2.39a21.48 21.48 0 0 0 13.67-6.21s.7.44 1.9 1.16a47.361 47.361 0 0 0 19.72 6.55c24.48 2.32 36.51-5 44.06-11a10.47 10.47 0 0 0 4.81 6 17.791 17.791 0 0 0 9.75 2.33 26.78 26.78 0 0 0 8.82-2.25 49.097 49.097 0 0 1-3.8 7.52s-6 .27-9.3.8a30.81 30.81 0 0 0-13.8 5.34c-3.9 2.58-5.67 7.22-4.33 10.42 1.08 2.38 4 4.56 9.61 4.3a23.62 23.62 0 0 0 13.79-5.46c5.25-4 9.42-11.78 9.42-11.78a13.821 13.821 0 0 1 3.55 0 109.416 109.416 0 0 1 15.73 2.57c43.71 12.85 61.57 8.82 65.33 7.4.95-.09 4.08-6.37 3.4-6.74Zm-70.73-61.2c-1.63-2.23-1.68-4.561 0-6.62a5.873 5.873 0 0 1 6-1.681c2.4.58 3.24 3.36 3 5.27-.45 3.3-5 5.24-5 5.24h-.5s-1.55.24-3.5-2.21Zm-67.82 28.14a16.769 16.769 0 0 1 2.75-3.94 22.8 22.8 0 0 1 8.5-6.38c4.08-1.62 6.5.18 6.86 1.78.3 1.3.6 2.77-1.26 5.7-1.86 2.93-5.94 4.51-10.46 5.12a32.408 32.408 0 0 1-7.48 0 7.17 7.17 0 0 1 1.09-2.28Zm-23.5-15.67c1.2-3.31 4-9.51 6.72-11.81 3.21-2.59 5.17-2.62 6.31-2.4 1.76.34 2.08 1.49 1.68 4.5a30.3 30.3 0 0 1-5.73 10.89 54.227 54.227 0 0 1-7.76 7.41 41.68 41.68 0 0 1-5.8 3.6s3.4-8.88 4.58-12.19Zm-22.54 30c-3.45 3.37-15.52 5.15-16.23-.59-.07-3.34 4-4.59 8-4.43 6.66.48 9.72 3.33 9.72 3.33s.69-.07-1.49 1.73v-.04Zm74.36 29.34c-3.26.55-5.78-.35-6.53-1.84-1-1.5-1-4.51 2.72-7.3 3.24-2.53 7.41-3.57 11.53-4.16 4.12-.59 7.92-.76 7.92-.76s-4.46 11.19-15.64 14.06Z"/></svg>